<?xml version="1.0" encoding="utf-8"?>
<!-- Generator: Adobe Illustrator 25.3.1, SVG Export Plug-In . SVG Version: 6.00 Build 0)  -->
<svg version="1.1" id="Layer_1" xmlns="http://www.w3.org/2000/svg" xmlns:xlink="http://www.w3.org/1999/xlink" x="0px" y="0px"
	 viewBox="0 0 640 118" style="enable-background:new 0 0 640 118;" xml:space="preserve">
<style type="text/css">
	.st0{fill:#1F1F1A;}
</style>
<path class="st0" d="M595.06,72.04c-3.07,1.38-4.3,0.46-4.3-4.92c0-11.22,3.69-16.59,9.37-16.59c6.45,0,10.3,7.53,10.3,12.75
	c0,1.08-0.62,1.84-2,2.46L595.06,72.04z M212.59,70.5c0-7.53,1.23-18.9,9.68-18.9c10.76,0,13.52,21.97,13.52,30.43
	c0,8.45-1.38,18.75-9.83,18.75C215.36,100.77,212.59,78.8,212.59,70.5 M366.56,68.66c0-6.15,1.23-19.36,9.68-19.36
	c10.76,0,13.52,22.43,13.52,31.04c0,6.15-1.38,19.21-9.83,19.21C369.33,99.54,366.56,77.11,366.56,68.66 M40.64,33.93
	C19.28,33.93,1,50.99,1,76.65c0,22.9,15.67,38.72,36.57,38.72s35.5-15.67,35.5-24.12c0-2.77-1.54-5.53-4.61-5.53
	c-1.69,0-3.38,0.92-6.15,3.07c-4.46,3.38-9.07,5.38-14.29,5.38c-13.83,0-22.13-13.98-22.13-28.12c0-13.06,3.69-19.21,9.53-19.21
	c5.22,0,8.76,4.92,12.75,18.13c1.38,4.61,2.92,6.45,5.38,6.45c5.22,0,17.98-10.14,17.98-17.21c0-3.84-3.07-7.99-7.53-11.83
	C58.62,37.77,50.94,33.93,40.64,33.93 M375.78,115.37c24.74,0,41.34-17.21,41.34-42.41c0-23.82-14.14-39.18-36.11-39.18
	c-25.05,0-41.64,17.21-41.64,42.56C339.36,100.16,353.34,115.37,375.78,115.37 M494.25,96.47c-3.69,0-4.76-4-4.76-7.53V42.69
	c0-6.45-2.46-8.76-5.99-8.76c-2,0-4.3,0.61-6.76,1.69l-13.06,5.69c-5.38,2.31-6.92,4.46-6.92,7.38c0,1.84,1.08,3.69,3.99,5.38
	c2.3,1.54,3.23,3.23,3.23,9.83v18.29c0,8.3-5.99,10.14-9.83,10.14c-5.38,0-7.84-3.23-7.84-11.22l0.31-38.42
	c0-6.45-2.46-8.76-5.99-8.76c-2,0-4.3,0.61-6.76,1.69l-12.6,5.53c-5.38,2.31-6.92,4.46-6.92,7.38c0,1.84,1.08,3.69,4,5.38
	c2.3,1.54,3.23,3.23,3.23,9.83c0,11.37-0.92,22.59-0.92,31.96c0,11.53,7.38,19.67,18.29,19.67c7.22,0,13.83-3.69,21.82-9.37
	c1.08-0.77,2.15-1.23,3.07-1.23c1.38,0,2.15,1.08,2.92,4.92c0.77,3.99,2.46,5.68,5.38,5.68c1.84,0,4.3-0.61,6.61-1.69l13.37-6.15
	c3.23-1.54,4.92-2,6.45-2c2,0,2.92,0.92,3.38,2.92l0.46,2.15c0.92,4.46,3.23,5.99,5.99,5.99c4.15,0,6.91-5.07,9.53-5.07
	c1.84,0,3.23,1.08,7.38,2.15c3.84,1.08,8.3,1.69,12.6,1.69c15.37,0,26.58-7.68,29.2-18.13c0.46-1.84,0.92-2.31,1.54-2.31
	s1.08,0.15,2,2c5.53,10.91,17.06,18.44,31.35,18.44c22.9,0,37.03-15.52,37.03-25.2c0-2.92-1.69-5.22-4.46-5.22
	c-1.54,0-2.92,0.61-5.84,3.07c-5.38,4.3-11.52,6.76-17.67,6.76c-10.76,0-15.83-7.38-15.83-9.99c0-1.38,0.61-2.15,1.54-2.61
	l35.96-15.67c2.15-0.92,4.15-2.3,4.15-5.53c0-2.61-1.08-5.07-3.53-9.83c-5.84-11.22-16.14-17.21-28.43-17.21
	c-20.9,0-37.03,18.13-38.88,37.49c-0.31,3.23-0.92,3.84-1.69,3.84c-0.77,0-1.23-0.46-2.15-1.38c-5.22-4.76-10.91-8.14-22.28-11.99
	c-14.6-4.92-17.52-7.53-17.52-10.3s3.38-4.61,8.14-4.61c5.68,0,11.68,2.46,16.29,6.76c6.15,5.68,8.6,7.53,11.37,7.53
	s4.61-2.3,4.61-4.92c0-1.38-0.31-2.92-0.92-4.3l-5.38-13.52c-1.54-4-3.53-6.15-6.45-6.15c-2,0-3.38,0.77-4.76,1.54
	c-1.23,0.77-1.84,1.23-3.23,1.23c-4.15,0-6.91-1.23-13.83-1.23c-18.29,0-30.89,8.76-30.89,22.13c0,9.99,7.22,17.67,24.59,23.82
	c17.36,6.15,19.21,8.91,19.21,11.83c0,3.07-2.77,5.53-8.45,5.53c-8.91,0-16.75-3.69-22.28-12.29c-3.07-4.76-5.07-6.92-8.14-6.92
	c-2.92,0-4.92,2.46-4.92,6.3c0,2.46,0.92,5.07,0.92,7.53C498.25,94.93,496.87,96.47,494.25,96.47 M108.56,53.91
	c2.31,1.54,3.23,3.23,3.23,9.83c0,11.37-0.92,22.59-0.92,31.96c0,11.53,7.38,19.67,18.28,19.67c7.22,0,13.83-3.69,21.82-9.37
	c1.08-0.77,2.15-1.23,3.07-1.23c1.38,0,2.15,1.08,2.92,4.92c0.77,3.99,2.46,5.68,5.38,5.68c1.84,0,4.3-0.61,6.61-1.69l9.53-4.46
	c3.23-1.54,5.38-2,6.76-2c2.15,0,2.92,1.38,2.92,3.53c0,3.23,1.69,4.61,3.84,4.61c1.23,0,2.61-0.46,4.76-1.84l5.68-3.53
	c1.84-1.23,2.92-1.69,3.99-1.69c1.08,0,2,0.31,3.07,1.23c5.07,4.15,10.45,5.84,16.9,5.84c20.28,0,35.04-18.59,35.04-43.49
	c0-22.13-10.3-37.95-27.2-37.95c-5.22,0-10.6,1.54-15.06,4.76c-1.84,1.38-2.77,2-3.69,2c-1.23,0-1.84-0.92-1.84-2.61V8.27
	c0-4.76-2-7.22-5.53-7.22c-1.54,0-3.69,0.46-6.92,2.46l-16.29,10.14c-3.69,2.31-4.46,4.3-4.46,5.84c0,2.15,1.38,3.99,4.46,5.84
	c2.3,1.54,3.23,2.92,3.23,10.91v53.63c0,5.53-1.38,6.76-3.69,6.76c-3.69,0-4.76-3.99-4.76-7.53V42.69c0-6.45-2.46-8.76-5.99-8.76
	c-2,0-4.3,0.61-6.76,1.69l-13.06,5.69c-5.38,2.31-6.91,4.46-6.91,7.38c0,1.84,1.08,3.69,3.99,5.38c2.31,1.54,3.23,3.23,3.23,9.83
	v18.29c0,8.3-5.99,10.14-9.83,10.14c-5.38,0-7.84-3.23-7.84-11.22l0.31-38.42c0-6.45-2.46-8.76-5.99-8.76c-2,0-4.3,0.61-6.76,1.69
	l-12.6,5.53c-5.38,2.31-6.91,4.46-6.91,7.38C104.57,50.37,105.64,52.22,108.56,53.91 M264.37,93.09c0,5.99-0.46,7.53-3.38,9.37
	c-3.38,2.15-4.61,3.69-4.61,5.99c0,3.53,3.07,5.38,8.76,5.38h23.97c5.68,0,8.76-1.84,8.76-5.38c0-2.31-1.23-3.84-4.61-5.99
	c-2.92-1.84-3.38-3.38-3.38-9.37V67.43c0-8.76,2.77-11.98,7.07-11.98c5.99,0,8.61,6.15,11.06,19.05c1.84,9.99,2.61,20.59,2.61,22.74
	c0,3.07-0.15,4.15-2,5.22c-3.38,2-4.61,3.69-4.61,5.99c0,3.69,2.46,5.38,7.99,5.38h24.28c5.53,0,8.14-1.69,8.14-5.38
	c0-2.31-1.38-4.15-3.99-5.99c-2-1.38-2.31-2.31-4.61-19.21c-1.54-11.83-2.92-21.21-6.45-32.73c-3.53-11.53-9.37-16.6-18.29-16.6
	c-7.07,0-11.83,3.07-16.6,6.15c-1.08,0.77-2,1.08-2.77,1.08c-0.92,0-1.84-0.46-1.84-2.61V8.27c0-4.76-2-7.22-5.53-7.22
	c-1.54,0-3.69,0.46-6.92,2.46l-16.29,10.14c-3.69,2.31-4.46,4.3-4.46,5.84c0,2.15,1.38,3.99,4.46,5.84
	c2.3,1.54,3.23,2.92,3.23,10.91V93.09z M76.6,93.09c0,5.99-0.46,7.53-3.38,9.37c-3.38,2.15-4.61,3.69-4.61,5.99
	c0,3.53,3.07,5.38,8.76,5.38h23.97c5.68,0,8.76-1.84,8.76-5.38c0-2.31-1.23-3.84-4.61-5.99c-2.92-1.84-3.38-3.38-3.38-9.37V8.27
	c0-4.76-2-7.22-5.53-7.22c-1.54,0-3.69,0.46-6.92,2.46L73.37,13.65c-3.69,2.31-4.46,4.3-4.46,5.84c0,2.15,1.38,3.99,4.46,5.84
	c2.31,1.54,3.23,2.92,3.23,10.91V93.09z"/>
</svg>
