<svg width="16" height="23" viewBox="0 0 16 23" fill="none" xmlns="http://www.w3.org/2000/svg">
<path d="M9 1C9 0.447715 8.55228 -2.41411e-08 8 0C7.44772 2.41411e-08 7 0.447715 7 1L9 1ZM7.29289 22.7071C7.68342 23.0976 8.31658 23.0976 8.70711 22.7071L15.0711 16.3431C15.4616 15.9526 15.4616 15.3195 15.0711 14.9289C14.6805 14.5384 14.0474 14.5384 13.6569 14.9289L8 20.5858L2.34315 14.9289C1.95262 14.5384 1.31946 14.5384 0.928933 14.9289C0.538408 15.3195 0.538408 15.9526 0.928933 16.3431L7.29289 22.7071ZM7 1L7 22L9 22L9 1L7 1Z" fill="#242420"/>
</svg>
